<svg width="62" height="62" viewBox="0 0 62 62" fill="none" xmlns="http://www.w3.org/2000/svg">
<path d="M23.6577 31C25.4599 31 26.9208 29.539 26.9208 27.7369C26.9208 25.9347 25.4599 24.4737 23.6577 24.4737C21.8555 24.4737 20.3945 25.9347 20.3945 27.7369C20.3945 29.539 21.8555 31 23.6577 31Z" fill="white"/>
<path d="M38.3423 31C40.1445 31 41.6054 29.539 41.6054 27.7369C41.6054 25.9347 40.1445 24.4737 38.3423 24.4737C36.5401 24.4737 35.0791 25.9347 35.0791 27.7369C35.0791 29.539 36.5401 31 38.3423 31Z" fill="white"/>
<path d="M52.3125 52.3125L45.2164 46.5L38.0961 52.3125L31 46.5L23.9039 52.3125L16.7836 46.5L9.6875 52.3125V29.0625C9.6875 23.4101 11.9329 17.9892 15.9298 13.9923C19.9267 9.99542 25.3476 7.75 31 7.75C36.6524 7.75 42.0733 9.99542 46.0702 13.9923C50.0671 17.9892 52.3125 23.4101 52.3125 29.0625V52.3125Z" stroke="white" stroke-width="3" stroke-linecap="round" stroke-linejoin="round"/>
</svg>
