<svg width="444" height="444" viewBox="0 0 444 444" fill="none" xmlns="http://www.w3.org/2000/svg">
<path d="M169.421 222C182.327 222 192.789 211.538 192.789 198.632C192.789 185.726 182.327 175.263 169.421 175.263C156.515 175.263 146.053 185.726 146.053 198.632C146.053 211.538 156.515 222 169.421 222Z" fill="black"/>
<path d="M274.579 222C287.485 222 297.947 211.538 297.947 198.632C297.947 185.726 287.485 175.263 274.579 175.263C261.673 175.263 251.211 185.726 251.211 198.632C251.211 211.538 261.673 222 274.579 222Z" fill="black"/>
<path d="M374.625 374.625L323.808 333L272.817 374.625L222 333L171.183 374.625L120.192 333L69.375 374.625V208.125C69.375 167.646 85.4551 128.826 114.078 100.203C142.701 71.5801 181.521 55.5 222 55.5C262.479 55.5 301.299 71.5801 329.922 100.203C358.545 128.826 374.625 167.646 374.625 208.125V374.625Z" stroke="black" stroke-width="25" stroke-linecap="round" stroke-linejoin="round"/>
</svg>
